#define 29a2c334a8e847d9fed8bf278d0a8642DnGep3uAW9O7g4Qf_width 70
#define 29a2c334a8e847d9fed8bf278d0a8642DnGep3uAW9O7g4Qf_height 69
static char 29a2c334a8e847d9fed8bf278d0a8642DnGep3uAW9O7g4Qf_bits[] = {
  0x00, 0x00, 0x00, 0x00, 0x00, 0x00, 0x00, 0x00, 0x00, 0x00, 0x00, 0x00, 
  0x00, 0x00, 0x00, 0x00, 0x00, 0x00, 0x00, 0x00, 0x00, 0x00, 0x00, 0x00, 
  0x00, 0x00, 0x00, 0x00, 0x00, 0x00, 0x00, 0x00, 0x00, 0x00, 0x00, 0x00, 
  0x00, 0x00, 0x00, 0xA0, 0x77, 0x00, 0x00, 0x00, 0x00, 0x00, 0x00, 0x00, 
  0xFC, 0xFF, 0x1F, 0x00, 0x00, 0x00, 0x00, 0x00, 0x80, 0xFF, 0xFF, 0x7F, 
  0x00, 0x00, 0x00, 0x00, 0x00, 0xE0, 0xFF, 0xBF, 0xAD, 0x01, 0x00, 0x00, 
  0x00, 0x00, 0xF8, 0xFF, 0xFF, 0xF7, 0x07, 0x00, 0x00, 0x00, 0x00, 0xFC, 
  0xDF, 0xBD, 0xAE, 0x1D, 0x00, 0x00, 0x00, 0x00, 0xFF, 0xFF, 0x9F, 0xF7, 
  0x16, 0x00, 0x00, 0x00, 0x00, 0xFF, 0xFF, 0xF7, 0x2A, 0x76, 0x00, 0x00, 
  0x00, 0x80, 0xFF, 0xDF, 0xAF, 0x99, 0x6B, 0x00, 0x00, 0x00, 0xE0, 0xFF, 
  0xFF, 0xFD, 0x57, 0x94, 0x01, 0x00, 0x00, 0xF0, 0xFF, 0x7F, 0xEF, 0xAA, 
  0x61, 0x01, 0x00, 0x00, 0xF8, 0xFF, 0xFF, 0x00, 0x16, 0x94, 0x06, 0x00, 
  0x00, 0xF8, 0xFF, 0x0F, 0x00, 0x60, 0x80, 0x0A, 0x00, 0x00, 0xFC, 0xFF, 
  0x03, 0x00, 0x00, 0x91, 0x14, 0x00, 0x00, 0xFC, 0xFF, 0x00, 0x00, 0x00, 
  0x44, 0x1B, 0x00, 0x00, 0xFF, 0x7F, 0x00, 0x00, 0x00, 0x04, 0x24, 0x00, 
  0x00, 0xFF, 0x1F, 0x00, 0x00, 0x00, 0x00, 0x4A, 0x00, 0x00, 0xFF, 0x1F, 
  0x00, 0x00, 0x00, 0x20, 0x70, 0x00, 0x80, 0xFF, 0x07, 0x00, 0x28, 0x00, 
  0x00, 0x98, 0x00, 0x80, 0xFF, 0x07, 0x80, 0xD7, 0x01, 0x40, 0xA8, 0x00, 
  0x80, 0xFF, 0x03, 0x60, 0x37, 0x0D, 0x40, 0xCA, 0x01, 0xC0, 0xFF, 0x03, 
  0xF8, 0xD5, 0x10, 0x08, 0x70, 0x00, 0xC0, 0xFF, 0x00, 0xFC, 0x2F, 0x46, 
  0x00, 0x6C, 0x01, 0xE0, 0xFF, 0x00, 0xEC, 0xD9, 0x02, 0x04, 0xD0, 0x01, 
  0xE0, 0xFF, 0x00, 0xBF, 0x5A, 0x01, 0x40, 0x69, 0x02, 0xE0, 0xFF, 0x00, 
  0xFF, 0xEF, 0x2A, 0x02, 0xE0, 0x03, 0xE0, 0x7F, 0x80, 0xBF, 0xB7, 0x95, 
  0x00, 0x44, 0x02, 0xE0, 0x7F, 0xC0, 0xFF, 0x4D, 0x12, 0x49, 0xF2, 0x03, 
  0xF0, 0x7F, 0xC0, 0xFF, 0x4F, 0x52, 0xC0, 0x74, 0x02, 0xE0, 0x3F, 0xC0, 
  0xBF, 0xB6, 0x25, 0x2A, 0xE2, 0x03, 0xE0, 0x3F, 0xC0, 0xFF, 0xDF, 0x97, 
  0x09, 0x4A, 0x03, 0xF0, 0x3F, 0xE0, 0xFF, 0x7B, 0x6A, 0xD4, 0xF5, 0x03, 
  0xF0, 0x3F, 0xE0, 0xFF, 0xDD, 0xAE, 0x55, 0x7A, 0x01, 0xE0, 0x3F, 0xE0, 
  0xFF, 0x6F, 0x41, 0x22, 0xEC, 0x07, 0xE0, 0x3F, 0xE0, 0xFF, 0x07, 0x00, 
  0x00, 0xF6, 0x03, 0xF0, 0x3F, 0xE0, 0xFF, 0x1F, 0x00, 0x00, 0xC8, 0x03, 
  0xE0, 0x3F, 0xE0, 0xFF, 0x0B, 0x00, 0x00, 0xF6, 0x03, 0xE0, 0x3F, 0xC0, 
  0xFF, 0x1F, 0x00, 0x00, 0xB4, 0x03, 0xE0, 0x7F, 0xC0, 0xFF, 0x1F, 0x00, 
  0x00, 0xFE, 0x03, 0xE0, 0x7F, 0x80, 0xFF, 0x0F, 0x00, 0x00, 0xFA, 0x01, 
  0xC0, 0x7F, 0x80, 0xFF, 0xAF, 0x08, 0x00, 0xFE, 0x01, 0xC0, 0xFF, 0x80, 
  0xFF, 0x7F, 0x77, 0x01, 0xDB, 0x01, 0xC0, 0xFF, 0x00, 0xFF, 0xFF, 0xFF, 
  0x00, 0xFA, 0x01, 0x80, 0xFF, 0x00, 0xFF, 0xFF, 0xBF, 0x00, 0xFF, 0x00, 
  0x80, 0xFF, 0x01, 0xFC, 0xFF, 0x7F, 0x80, 0x7F, 0x00, 0x00, 0xFF, 0x01, 
  0xF8, 0xFF, 0x3F, 0x80, 0x7F, 0x00, 0x00, 0xFF, 0x03, 0xF0, 0xFF, 0x0F, 
  0xC0, 0x7F, 0x00, 0x00, 0xFF, 0x07, 0xC0, 0xFF, 0x0F, 0xE0, 0x3F, 0x00, 
  0x00, 0xFE, 0x0F, 0x00, 0xFF, 0x00, 0xF0, 0x3F, 0x00, 0x00, 0xFC, 0x0F, 
  0x00, 0x00, 0x00, 0xF0, 0x1F, 0x00, 0x00, 0xFC, 0x1F, 0x00, 0x00, 0x00, 
  0xF8, 0x0F, 0x00, 0x00, 0xF8, 0x7F, 0x00, 0x00, 0x00, 0xFC, 0x0F, 0x00, 
  0x00, 0xF0, 0xFF, 0x01, 0x00, 0x00, 0xFF, 0x07, 0x00, 0x00, 0xE0, 0xFF, 
  0x01, 0x00, 0x80, 0xFF, 0x03, 0x00, 0x00, 0xC0, 0xFF, 0x0F, 0x00, 0xE0, 
  0xFF, 0x01, 0x00, 0x00, 0x80, 0xFF, 0xFF, 0x00, 0xFE, 0xFF, 0x00, 0x00, 
  0x00, 0x00, 0xFF, 0xFF, 0xFF, 0xFF, 0x7F, 0x00, 0x00, 0x00, 0x00, 0xFC, 
  0xFF, 0xFF, 0xFF, 0x1F, 0x00, 0x00, 0x00, 0x00, 0xF8, 0xFF, 0xFF, 0xFF, 
  0x0F, 0x00, 0x00, 0x00, 0x00, 0xF0, 0xFF, 0xFF, 0xFF, 0x07, 0x00, 0x00, 
  0x00, 0x00, 0x80, 0xFF, 0xFF, 0xFF, 0x00, 0x00, 0x00, 0x00, 0x00, 0x00, 
  0xFE, 0xFF, 0x3F, 0x00, 0x00, 0x00, 0x00, 0x00, 0x00, 0xF0, 0xFF, 0x07, 
  0x00, 0x00, 0x00, 0x00, 0x00, 0x00, 0x00, 0x12, 0x00, 0x00, 0x00, 0x00, 
  0x00, 0x00, 0x00, 0x00, 0x00, 0x00, 0x00, 0x00, 0x00, };
